<svg xmlns="http://www.w3.org/2000/svg" width="63" height="63" viewBox="0 0 62.838 62.838"><path d="M55.498 23.36c-6.495.805-4.207 4.888-4.207 4.888-1.16-2.668 4.64-3.465 3.713.742s-10.83.44-10.83.44l-.01.018-1.256-.556c-3.997-1.534-8.15-1.4-11.497.038-3.348-1.437-7.5-1.57-11.498-.038a18.22 18.22 0 0 0-1.239.548l-.006-.01S8.766 33.197 7.837 29s4.873-3.4 3.71-.742c0 0 2.3-4.083-4.207-4.888s-9.714 5.816-5.32 12.187c3.846 5.58 14.675 4.1 19.59 2.75.1-.026.198-.06.297-.1.558-.16 1.047-.317 1.404-.46 3.664-1.405 6.477-3.945 8.097-6.906 1.62 2.96 4.434 5.5 8.098 6.906.09.036.183.057.273.09a19.1 19.1 0 0 0 .929.304c.212.062.423.13.635.183 4.964 1.343 15.655 2.76 19.473-2.777 4.396-6.37 1.18-12.99-5.317-12.187z"/></svg>