<svg xmlns="http://www.w3.org/2000/svg" xmlns:xlink="http://www.w3.org/1999/xlink" id="Capa_1" x="0px" y="0px" style="enable-background:new 0 0 474.952 474.952" version="1.1" viewBox="0 0 474.952 474.952" xml:space="preserve">
    <g>
        <path d="M359.434,137.829c0.593-4.887,0.991-9.828,0.991-14.877C360.425,55.155,305.27,0,237.481,0
		C169.68,0,114.528,55.155,114.528,122.952c0,5.049,0.398,9.998,0.988,14.887c-56.373,38.834-93.387,103.762-93.387,177.4
		c0,50.465,17.456,96.748,46.567,133.408c13.198,16.629,33.277,26.305,54.51,26.305h228.541c21.2,0,41.325-9.699,54.507-26.305
		c29.112-36.66,46.568-82.943,46.568-133.408C452.823,241.6,415.807,176.663,359.434,137.829z M237.481,47.143
		c38.571,0,70.146,29.064,74.849,66.393c-23.348-8.67-48.486-13.641-74.849-13.641c-26.366,0-51.511,4.971-74.858,13.641
		C167.317,76.207,198.9,47.143,237.481,47.143z M223.001,355.383c-2.465,4.674-7.306,7.603-12.592,7.603
		c-5.079,0-9.783-2.693-12.355-7.074l-18.086-30.809l-7.35,9.047v14.51c0,7.912-6.414,14.326-14.325,14.326
		c-7.911,0-14.325-6.414-14.325-14.326V243.503c0-7.91,6.414-14.326,14.325-14.326c7.912,0,14.325,6.416,14.325,14.326v66.148
		l21.408-32.434c2.632-3.988,7.098-6.391,11.877-6.391c4.759,0,9.07,2.785,11.027,7.127c1.955,4.336,1.19,9.416-1.966,12.982
		l-15.215,17.205l22.382,32.555C225.127,345.053,225.464,350.711,223.001,355.383z M330.791,298.159v51.447
		c0,17.717-3.576,32.227-13.935,41.465c-10.189,8.67-23.939,11.311-37.505,11.311c-7.581,0-15.468-0.969-22.335-2.863
		c-6.192-1.703-9.86-8.057-8.24-14.271c0.721-2.762,2.546-5.117,5.045-6.508c2.512-1.389,5.472-1.695,8.203-0.844
		c4.929,1.535,10.661,2.617,16.561,2.617c13.579,0,23.938-7.352,23.938-24.309v-6.031h-0.367
		c-5.478,7.727-14.333,12.063-24.892,12.063c-22.803,0-39.009-18.469-39.009-45.049c0-29.586,19.228-48.432,41.847-48.432
		c12.63,0,20.534,5.463,25.245,13.006h0.383c0.53-6.186,5.703-10.934,11.909-10.934h1.396c3.231,0,6.325,1.305,8.571,3.621
		c2.25,2.318,3.47,5.449,3.378,8.678C330.868,287.202,330.791,292.096,330.791,298.159z"/>
        <path d="M286.135,290.424c-10.374,0-18.843,9.43-18.843,26.203c0,13.758,6.781,24.5,18.843,24.5
		c7.351,0,13.183-4.904,15.068-11.688c0.753-2.072,0.953-5.086,0.953-7.541v-13.566c0-1.889-0.2-3.767-0.569-5.279
		C299.517,295.518,294.053,290.424,286.135,290.424z"/>
    </g>
    <g/>
    <g/>
    <g/>
    <g/>
    <g/>
    <g/>
    <g/>
    <g/>
    <g/>
    <g/>
    <g/>
    <g/>
    <g/>
    <g/>
    <g/>
</svg>
