<svg xmlns="http://www.w3.org/2000/svg" xmlns:xlink="http://www.w3.org/1999/xlink" id="Capa_1" width="62.838px" height="62.838px" x="0px" y="0px" style="enable-background:new 0 0 62.838 62.838" version="1.1" viewBox="0 0 62.838 62.838" xml:space="preserve">
    <g>
        <g>
            <path d="M55.498,23.361c-6.495,0.805-4.207,4.888-4.207,4.888c-1.161-2.668,4.64-3.465,3.713,0.742
			c-0.929,4.207-10.831,0.439-10.831,0.439l-0.009,0.018c-0.409-0.197-0.822-0.39-1.256-0.556c-3.997-1.534-8.15-1.399-11.497,0.038
			c-3.348-1.437-7.5-1.571-11.498-0.038c-0.427,0.165-0.834,0.356-1.239,0.548l-0.006-0.011c0,0-9.902,3.768-10.831-0.439
			s4.873-3.41,3.711-0.742c0,0,2.29-4.083-4.207-4.888c-6.496-0.804-9.714,5.816-5.321,12.187c3.846,5.58,14.675,4.1,19.589,2.749
			c0.099-0.026,0.198-0.06,0.297-0.09c0.558-0.16,1.047-0.317,1.404-0.459c3.664-1.405,6.477-3.945,8.097-6.906
			c1.621,2.96,4.434,5.5,8.098,6.906c0.091,0.036,0.183,0.057,0.273,0.091c0.266,0.096,0.576,0.197,0.929,0.304
			c0.212,0.062,0.423,0.13,0.635,0.183c4.964,1.343,15.655,2.76,19.473-2.777C65.211,29.177,61.994,22.557,55.498,23.361z"/>
        </g>
    </g>
    <g/>
    <g/>
    <g/>
    <g/>
    <g/>
    <g/>
    <g/>
    <g/>
    <g/>
    <g/>
    <g/>
    <g/>
    <g/>
    <g/>
    <g/>
</svg>
