<svg xmlns="http://www.w3.org/2000/svg" xmlns:xlink="http://www.w3.org/1999/xlink" id="Capa_1" x="0px" y="0px" style="enable-background:new 0 0 485.234 485.234" version="1.1" viewBox="0 0 485.234 485.234" xml:space="preserve">
    <g>
        <path d="M304.357,18.197C304.357,8.152,296.207,0,286.162,0H176.224c-10.046,0-18.195,8.152-18.195,18.197v57.291h146.328V18.197z"/>
        <path d="M158.029,467.039c0,10.043,8.149,18.195,18.195,18.195h109.938c10.045,0,18.195-8.152,18.195-18.195v-57.291H158.029
		V467.039z"/>
        <path d="M361.869,224.438h-6.122c-5.038-34.623-24.136-64.697-51.39-84.221c-0.016-0.016-0.023-0.016-0.039-0.031
		c-9.438-6.762-19.839-12.209-30.969-16.176h31.008c8.932,0,16.174-7.232,16.174-16.174c0-8.939-7.242-16.174-16.174-16.174H158.029
		c-8.932,0-16.174,7.234-16.174,16.174c0,8.941,7.243,16.174,16.174,16.174h31.007c-11.127,3.967-21.529,9.414-30.968,16.176
		c-0.016,0.016-0.023,0.016-0.039,0.031c-31.939,22.871-52.859,60.211-52.859,102.402c0,42.205,20.921,79.527,52.859,102.416
		c0.008,0.018,0.008,0.018,0.008,0.018c9.447,6.76,19.84,12.209,30.951,16.174h-30.959c-8.932,0-16.174,7.234-16.174,16.174
		c0,8.94,7.243,16.174,16.174,16.174h146.328c8.932,0,16.174-7.234,16.174-16.174c0-8.939-7.242-16.174-16.174-16.174h-30.959
		c11.112-3.965,21.505-9.414,30.943-16.174c0,0,0.006,0,0.016-0.018c27.248-19.523,46.343-49.58,51.39-84.205h6.122
		c10.046,0,18.196-8.149,18.196-18.197C380.065,232.588,371.915,224.438,361.869,224.438z M231.192,336.299
		c-51.649,0-93.674-42.031-93.674-93.68c0-51.652,42.024-93.668,93.674-93.668c51.65,0,93.677,42.016,93.677,93.668
		C324.869,294.268,282.842,336.299,231.192,336.299z"/>
        <path d="M266.678,212.084l-24.558,14.631c-3.13-2.084-6.885-3.303-10.928-3.303c-10.908,0-19.75,8.842-19.75,19.75
		c0,2.385,0.444,4.66,1.218,6.775l-40.614,41.268c-3.134,3.176-3.086,8.309,0.096,11.434c1.57,1.549,3.625,2.322,5.671,2.322
		c2.092,0,4.177-0.805,5.766-2.414l40.367-41.025c2.246,0.887,4.686,1.391,7.247,1.391c10.908,0,19.75-8.842,19.75-19.75
		c0-0.934-0.087-1.846-0.212-2.744l24.222-14.432c3.84-2.291,5.097-7.25,2.813-11.09
		C275.474,211.061,270.499,209.811,266.678,212.084z"/>
    </g>
    <g/>
    <g/>
    <g/>
    <g/>
    <g/>
    <g/>
    <g/>
    <g/>
    <g/>
    <g/>
    <g/>
    <g/>
    <g/>
    <g/>
    <g/>
</svg>
