<svg xmlns="http://www.w3.org/2000/svg" xmlns:xlink="http://www.w3.org/1999/xlink" id="Capa_1" x="0px" y="0px" style="enable-background:new 0 0 488.535 488.535" version="1.1" viewBox="0 0 488.535 488.535" xml:space="preserve">
    <path d="M488.21,214.864L463.863,98.924l-84.165-84.156c-0.063-0.055-0.129-0.072-0.191-0.127l-0.352-0.351l-0.064,0.071
	c-5.934-5.384-15.075-5.329-20.805,0.407l-49.492,49.478c-5.728,5.736-5.775,14.87-0.4,20.821l-51.727,51.719
	c-5.934-5.378-15.078-5.321-20.788,0.414l-49.495,49.469c-5.729,5.736-5.774,14.863-0.414,20.814L17.531,375.949
	c-23.374,23.382-23.374,61.284,0,84.667c11.217,11.224,26.437,17.527,42.313,17.527s31.097-6.303,42.313-17.527l168.377-168.369
	v0.009l115.948,24.356c5.011,1.052,10.212-0.503,13.833-4.117l5.424-5.433c5.92-5.919,5.904-15.509,0-21.427l-64.3-64.3
	l51.503-51.511l64.301,64.3c5.918,5.911,15.508,5.919,21.413,0.008l5.44-5.433C487.716,225.075,489.265,219.873,488.21,214.864z
	 M80.76,436.115c-10.706,10.714-28.082,10.707-38.786-0.008c-10.674-10.697-10.674-28.056,0-38.763
	c10.704-10.706,28.08-10.706,38.786-0.008C91.483,408.051,91.483,425.409,80.76,436.115z"/>
    <g/>
    <g/>
    <g/>
    <g/>
    <g/>
    <g/>
    <g/>
    <g/>
    <g/>
    <g/>
    <g/>
    <g/>
    <g/>
    <g/>
    <g/>
</svg>
